<svg width="47" height="44" fill="none" xmlns="http://www.w3.org/2000/svg"><path d="M17.75 22.5a2.497 2.497 0 0 0-2.488 2.5c0 1.375 1.113 2.5 2.488 2.5s2.5-1.125 2.5-2.5-1.125-2.5-2.5-2.5Zm-7.5-20V5h2.5l4.5 9.488-1.688 3.062c-.2.35-.312.762-.312 1.2 0 1.375 1.125 2.5 2.5 2.5h15v-2.5H18.275a.31.31 0 0 1-.313-.313l.038-.15 1.125-2.037h9.313c.937 0 1.762-.512 2.187-1.287L35.1 6.85A1.254 1.254 0 0 0 34 5H15.512l-1.175-2.5H10.25Zm20 20a2.497 2.497 0 0 0-2.488 2.5c0 1.375 1.113 2.5 2.488 2.5s2.5-1.125 2.5-2.5-1.125-2.5-2.5-2.5ZM8.328 41H6.864a.611.611 0 0 1-.384-.12c-.1-.08-.194-.198-.282-.354L4.35 37.61a.854.854 0 0 0-.156-.204.608.608 0 0 0-.174-.132.568.568 0 0 0-.21-.072 1.71 1.71 0 0 0-.264-.018H2.58V41H.966v-8.676H2.58v3.636h.816a1 1 0 0 0 .426-.084.872.872 0 0 0 .336-.312l1.902-2.808c.08-.128.174-.232.282-.312a.637.637 0 0 1 .39-.12h1.38l-2.358 3.48a1.508 1.508 0 0 1-.786.612c.24.068.442.176.606.324.168.144.328.344.48.6L8.328 41Zm3.015-6.252c.456 0 .87.074 1.242.222a2.692 2.692 0 0 1 1.578 1.626c.144.392.216.83.216 1.314 0 .488-.072.928-.216 1.32-.144.392-.35.726-.618 1.002a2.653 2.653 0 0 1-.96.636 3.333 3.333 0 0 1-1.242.222c-.46 0-.878-.074-1.254-.222a2.712 2.712 0 0 1-.966-.636 2.922 2.922 0 0 1-.618-1.002 3.807 3.807 0 0 1-.216-1.32c0-.484.072-.922.216-1.314.148-.392.354-.724.618-.996.268-.272.59-.482.966-.63a3.397 3.397 0 0 1 1.254-.222Zm0 5.202c.512 0 .89-.172 1.134-.516.248-.344.372-.848.372-1.512s-.124-1.17-.372-1.518c-.244-.348-.622-.522-1.134-.522-.52 0-.906.176-1.158.528-.248.348-.372.852-.372 1.512s.124 1.164.372 1.512c.252.344.638.516 1.158.516Zm5.648-.546c.168.204.35.348.546.432.2.084.416.126.648.126.224 0 .426-.042.606-.126.18-.084.332-.212.456-.384.128-.172.226-.388.294-.648.068-.264.102-.574.102-.93 0-.36-.03-.664-.09-.912a1.73 1.73 0 0 0-.246-.612.978.978 0 0 0-.396-.342 1.206 1.206 0 0 0-.522-.108c-.308 0-.57.066-.786.198-.216.128-.42.31-.612.546v2.76Zm-.078-3.72a3.21 3.21 0 0 1 .858-.69c.32-.176.696-.264 1.128-.264a2 2 0 0 1 .918.21c.28.14.52.344.72.612.204.264.36.592.468.984.112.388.168.834.168 1.338 0 .46-.062.886-.186 1.278a3.095 3.095 0 0 1-.534 1.02 2.447 2.447 0 0 1-.834.678c-.324.16-.688.24-1.092.24-.344 0-.638-.052-.882-.156a2.201 2.201 0 0 1-.654-.444v2.52H15.51v-8.166h.906c.192 0 .318.09.378.27l.12.57Zm4.94-.174c.231-.224.52-.406.863-.546.345-.144.756-.216 1.236-.216.38 0 .718.046 1.014.138.296.088.544.21.744.366.204.152.358.328.462.528a1.262 1.262 0 0 1 .108.984 1.406 1.406 0 0 1-.474.702c-.127.1-.285.186-.473.258.336.128.606.316.81.564.207.248.311.554.311.918 0 .3-.07.566-.21.798-.136.232-.317.43-.546.594-.227.16-.49.282-.785.366a3.26 3.26 0 0 1-.907.126c-.175 0-.366-.016-.57-.048a3.17 3.17 0 0 1-.605-.162 3.302 3.302 0 0 1-.6-.312 2.545 2.545 0 0 1-.535-.486l.426-.54a.3.3 0 0 1 .27-.138c.093 0 .18.03.265.09l.288.192c.111.068.244.132.395.192.152.056.343.084.57.084.372 0 .654-.084.846-.252a.803.803 0 0 0 .288-.63c0-.248-.1-.442-.3-.582-.195-.14-.515-.21-.96-.21h-.695v-.966h.696c.387 0 .686-.068.893-.204.209-.136.313-.316.313-.54 0-.204-.093-.372-.276-.504-.18-.132-.448-.198-.805-.198-.212 0-.392.022-.54.066a2.597 2.597 0 0 0-.384.144 2.61 2.61 0 0 0-.264.138.386.386 0 0 1-.378.03.527.527 0 0 1-.155-.174l-.337-.57Zm11.294-.666V41h-1.482v-3.594c0-.092.004-.192.012-.3a9.63 9.63 0 0 1 .042-.336 2.91 2.91 0 0 1-.384.654l-.282.39-.384.546-.438.612-1.182 1.668c-.056.084-.13.166-.222.246a.441.441 0 0 1-.306.12h-.906V34.85h1.482v3.594c0 .092-.006.194-.018.306-.008.108-.02.218-.036.33a3.127 3.127 0 0 1 .378-.648c.072-.1.164-.23.276-.39l.39-.54.438-.624c.348-.492.744-1.048 1.188-1.668.056-.088.13-.17.222-.246a.463.463 0 0 1 .312-.12h.9Zm6.828 0V41h-1.482v-2.724h-2.4V41H34.61v-6.156h1.482v2.334h2.4v-2.334h1.482Zm4.72 3.528c-.428.02-.788.058-1.08.114-.292.052-.526.12-.702.204a.923.923 0 0 0-.378.294.639.639 0 0 0-.114.366c0 .26.076.446.228.558.156.112.358.168.606.168.304 0 .566-.054.786-.162.224-.112.442-.28.654-.504v-1.038Zm-3.396-2.67c.708-.648 1.56-.972 2.556-.972.36 0 .682.06.966.18.284.116.524.28.72.492.196.208.344.458.444.75.104.292.156.612.156.96V41h-.672a.708.708 0 0 1-.324-.06c-.076-.044-.136-.13-.18-.258l-.132-.444c-.156.14-.308.264-.456.372a2.804 2.804 0 0 1-.462.264c-.16.072-.332.126-.516.162-.18.04-.38.06-.6.06-.26 0-.5-.034-.72-.102a1.618 1.618 0 0 1-.57-.318 1.414 1.414 0 0 1-.372-.522 1.852 1.852 0 0 1-.132-.726 1.419 1.419 0 0 1 .33-.906c.12-.14.274-.272.462-.396s.418-.232.69-.324c.276-.092.596-.166.96-.222.364-.06.78-.096 1.248-.108v-.36c0-.412-.088-.716-.264-.912-.176-.2-.43-.3-.762-.3-.24 0-.44.028-.6.084-.156.056-.294.12-.414.192l-.33.186a.631.631 0 0 1-.324.084.439.439 0 0 1-.264-.078.716.716 0 0 1-.174-.192l-.264-.474Z" fill="#2D2D2D"/></svg>