<svg width="79" height="30" fill="none" xmlns="http://www.w3.org/2000/svg"><rect width="79" height="30" rx="4" fill="#3670C7"/><path d="M41.044 10.402V19h-1.02v-6.318c0-.084.002-.174.006-.27l.024-.294-2.952 5.376c-.092.18-.232.27-.42.27h-.168c-.188 0-.328-.09-.42-.27l-3.012-5.4c.024.212.036.408.036.588V19h-1.02v-8.598h.858c.104 0 .184.01.24.03.056.02.11.076.162.168l2.97 5.292c.048.096.094.196.138.3.048.104.092.21.132.318.04-.108.082-.214.126-.318.044-.108.092-.21.144-.306l2.916-5.286c.048-.092.1-.148.156-.168.06-.02.142-.03.246-.03h.858Zm5.827 4.896c0-.248-.036-.474-.108-.678a1.437 1.437 0 0 0-.306-.534 1.292 1.292 0 0 0-.486-.348 1.616 1.616 0 0 0-.654-.126c-.512 0-.918.15-1.218.45-.296.296-.48.708-.552 1.236h3.324Zm.864 2.85c-.132.16-.29.3-.474.42a3.022 3.022 0 0 1-.594.288 3.503 3.503 0 0 1-.648.168c-.224.04-.446.06-.666.06-.42 0-.808-.07-1.164-.21a2.636 2.636 0 0 1-.918-.624 2.919 2.919 0 0 1-.6-1.02 4.135 4.135 0 0 1-.216-1.392c0-.424.064-.82.192-1.188.132-.368.32-.686.564-.954.244-.272.542-.484.894-.636a2.902 2.902 0 0 1 1.188-.234c.364 0 .7.062 1.008.186.312.12.58.296.804.528.228.228.406.512.534.852.128.336.192.72.192 1.152 0 .168-.018.28-.054.336-.036.056-.104.084-.204.084h-4.062c.012.384.064.718.156 1.002.096.284.228.522.396.714.168.188.368.33.6.426a2.1 2.1 0 0 0 .78.138c.268 0 .498-.03.69-.09a3.456 3.456 0 0 0 .852-.402.47.47 0 0 1 .246-.096c.088 0 .156.034.204.102l.3.39Zm6.472-5.226V19h-1.074v-2.844h-2.916V19h-1.074v-6.078h1.074v2.424h2.916v-2.424h1.074Zm6.966 5.328c.56 0 .978-.2 1.254-.6.276-.404.414-.966.414-1.686 0-.724-.138-1.288-.414-1.692-.276-.404-.694-.606-1.254-.606s-.978.202-1.254.606c-.276.404-.414.968-.414 1.692 0 .72.138 1.282.414 1.686.276.4.694.6 1.254.6Zm-2.718-2.706c.036-.416.122-.792.258-1.128.14-.336.326-.622.558-.858.236-.236.512-.416.828-.54a2.87 2.87 0 0 1 1.074-.192c.424 0 .806.074 1.146.222.344.148.636.358.876.63s.424.602.552.99c.132.384.198.814.198 1.29 0 .48-.066.912-.198 1.296s-.32.712-.564.984a2.506 2.506 0 0 1-.876.63 2.88 2.88 0 0 1-1.134.216 2.95 2.95 0 0 1-1.092-.192 2.391 2.391 0 0 1-.828-.546 2.732 2.732 0 0 1-.558-.87 3.748 3.748 0 0 1-.246-1.152h-1.47V19h-1.074v-6.078h1.074v2.622h1.476ZM16.75 18.5h3.5v-1.167h-3.5V18.5Zm0-7v1.167h10.5V11.5h-10.5Zm0 4.083h7v-1.166h-7v1.166Z" fill="#fff"/></svg>