<svg width="115" height="42" fill="none" xmlns="http://www.w3.org/2000/svg"><rect width="115" height="42" rx="6" fill="#3670C7"/><path d="M62.392 13.536V25h-1.36v-8.424c0-.112.003-.232.008-.36l.032-.392-3.936 7.168c-.123.24-.31.36-.56.36h-.224c-.25 0-.437-.12-.56-.36l-4.016-7.2c.032.283.048.544.048.784V25h-1.36V13.536h1.144c.139 0 .245.013.32.04.075.027.147.101.216.224l3.96 7.056c.064.128.125.261.184.4.064.139.123.28.176.424.053-.144.11-.285.168-.424.059-.144.123-.28.192-.408l3.888-7.048c.064-.123.133-.197.208-.224.08-.027.19-.04.328-.04h1.144Zm7.77 6.528c0-.33-.049-.632-.145-.904a1.917 1.917 0 0 0-.408-.712 1.722 1.722 0 0 0-.648-.464 2.155 2.155 0 0 0-.872-.168c-.682 0-1.224.2-1.624.6-.394.395-.64.944-.736 1.648h4.432Zm1.151 3.8c-.176.213-.386.4-.632.56a4.03 4.03 0 0 1-.792.384 4.676 4.676 0 0 1-.864.224c-.298.053-.594.08-.888.08-.56 0-1.077-.093-1.552-.28A3.513 3.513 0 0 1 65.361 24a3.89 3.89 0 0 1-.8-1.36c-.192-.539-.288-1.157-.288-1.856 0-.565.086-1.093.256-1.584a3.74 3.74 0 0 1 .752-1.272 3.374 3.374 0 0 1 1.192-.848 3.87 3.87 0 0 1 1.584-.312c.486 0 .934.083 1.344.248.416.16.774.395 1.072.704.304.304.542.683.712 1.136.171.448.256.96.256 1.536 0 .224-.024.373-.072.448-.048.075-.138.112-.272.112h-5.416c.016.512.086.957.208 1.336.128.379.304.696.528.952.224.25.491.44.8.568a2.8 2.8 0 0 0 1.04.184c.358 0 .664-.04.92-.12a4.608 4.608 0 0 0 1.136-.536c.128-.085.238-.128.328-.128.118 0 .208.045.272.136l.4.52Zm8.63-6.968V25H78.51v-3.792h-3.888V25h-1.431v-8.104h1.431v3.232h3.888v-3.232h1.432ZM89.23 24c.747 0 1.304-.267 1.672-.8.368-.539.552-1.288.552-2.248 0-.965-.184-1.717-.552-2.256-.368-.539-.925-.808-1.672-.808-.746 0-1.304.27-1.672.808-.368.539-.552 1.29-.552 2.256 0 .96.184 1.71.552 2.248.368.533.925.8 1.672.8Zm-3.624-3.608a5.183 5.183 0 0 1 .344-1.504c.187-.448.435-.83.744-1.144a3.192 3.192 0 0 1 1.104-.72c.427-.17.904-.256 1.432-.256.566 0 1.075.099 1.528.296.459.197.848.477 1.168.84.32.363.566.803.736 1.32.176.512.264 1.085.264 1.72 0 .64-.088 1.216-.264 1.728-.176.512-.427.95-.752 1.312a3.34 3.34 0 0 1-1.168.84 3.84 3.84 0 0 1-1.512.288 3.934 3.934 0 0 1-1.456-.256 3.19 3.19 0 0 1-1.104-.728 3.645 3.645 0 0 1-.744-1.16 5 5 0 0 1-.328-1.536h-1.96V25h-1.432v-8.104h1.432v3.496h1.968ZM24 26h6v-2h-6v2Zm0-12v2h18v-2H24Zm0 7h12v-2H24v2Z" fill="#fff"/></svg>