<svg width="62" height="44" fill="none" xmlns="http://www.w3.org/2000/svg"><path d="m31 26.688-1.813-1.65C22.75 19.2 18.5 15.35 18.5 10.625c0-3.85 3.025-6.875 6.875-6.875 2.175 0 4.262 1.013 5.625 2.612 1.362-1.6 3.45-2.612 5.625-2.612 3.85 0 6.875 3.025 6.875 6.875 0 4.725-4.25 8.575-10.688 14.425L31 26.687ZM8.28 32.324V41H6.66v-5.436c0-.204.004-.418.012-.642.012-.224.036-.462.072-.714-.08.224-.168.432-.264.624a6.114 6.114 0 0 1-.27.498l-3.318 5.172c-.036.06-.08.12-.132.18-.048.06-.102.114-.162.162-.06.044-.126.082-.198.114a.608.608 0 0 1-.222.042H.966v-8.676h1.62v5.436c0 .204-.006.42-.018.648a6.77 6.77 0 0 1-.066.714c.08-.224.166-.432.258-.624.096-.192.19-.36.282-.504l3.312-5.172a1.023 1.023 0 0 1 .294-.336.785.785 0 0 1 .192-.114.555.555 0 0 1 .228-.048H8.28Zm1.197 3.186c.232-.224.52-.406.864-.546.345-.144.757-.216 1.237-.216.38 0 .718.046 1.014.138.295.088.543.21.743.366.204.152.358.328.462.528a1.262 1.262 0 0 1 .108.984 1.406 1.406 0 0 1-.474.702c-.127.1-.285.186-.473.258.335.128.605.316.81.564.207.248.311.554.311.918 0 .3-.07.566-.21.798-.136.232-.317.43-.546.594-.228.16-.49.282-.786.366a3.26 3.26 0 0 1-.905.126c-.176 0-.367-.016-.57-.048a3.17 3.17 0 0 1-.606-.162 3.303 3.303 0 0 1-.6-.312 2.545 2.545 0 0 1-.535-.486l.426-.54a.3.3 0 0 1 .27-.138c.093 0 .18.03.264.09l.288.192c.112.068.244.132.396.192.152.056.342.084.57.084.373 0 .655-.084.847-.252a.803.803 0 0 0 .287-.63c0-.248-.1-.442-.3-.582-.195-.14-.515-.21-.96-.21h-.696v-.966h.697c.387 0 .685-.068.893-.204.208-.136.313-.316.313-.54 0-.204-.092-.372-.277-.504-.18-.132-.447-.198-.803-.198-.213 0-.393.022-.54.066a2.597 2.597 0 0 0-.385.144 2.61 2.61 0 0 0-.264.138.386.386 0 0 1-.378.03.527.527 0 0 1-.156-.174l-.336-.57Zm8.655 4.5c.512 0 .894-.164 1.146-.492.252-.328.378-.808.378-1.44 0-.628-.124-1.106-.372-1.434-.244-.328-.618-.492-1.122-.492-.504 0-.888.156-1.152.468-.264.308-.396.77-.396 1.386 0 .652.124 1.15.372 1.494.252.34.634.51 1.146.51Zm.432-6.282a2.704 2.704 0 0 0-.966.222c-.264.12-.484.284-.66.492a2.14 2.14 0 0 0-.396.738c-.088.284-.14.6-.156.948.1-.156.222-.298.366-.426.148-.132.312-.244.492-.336.184-.096.382-.17.594-.222a2.94 2.94 0 0 1 .69-.078c.408 0 .776.072 1.104.216.328.144.606.348.834.612.232.264.408.582.528.954.124.368.186.776.186 1.224 0 .464-.074.882-.222 1.254-.144.372-.35.69-.618.954a2.68 2.68 0 0 1-.96.6c-.376.14-.792.21-1.248.21-.444 0-.854-.072-1.23-.216a2.363 2.363 0 0 1-.966-.702c-.272-.324-.484-.744-.636-1.26-.152-.52-.228-1.154-.228-1.902 0-.628.058-1.212.174-1.752a4.16 4.16 0 0 1 .57-1.416c.264-.408.61-.736 1.038-.984.428-.248.956-.396 1.584-.444l2.19-.168.078.768a.71.71 0 0 1-.072.42c-.064.112-.178.172-.342.18l-1.728.114Zm5.248 5.676c.168.204.35.348.546.432.2.084.416.126.648.126.224 0 .426-.042.606-.126.18-.084.332-.212.456-.384.128-.172.226-.388.294-.648.068-.264.102-.574.102-.93 0-.36-.03-.664-.09-.912a1.73 1.73 0 0 0-.246-.612.978.978 0 0 0-.396-.342 1.206 1.206 0 0 0-.522-.108c-.308 0-.57.066-.786.198-.216.128-.42.31-.612.546v2.76Zm-.078-3.72a3.21 3.21 0 0 1 .858-.69c.32-.176.696-.264 1.128-.264a2 2 0 0 1 .918.21c.28.14.52.344.72.612.204.264.36.592.468.984.112.388.168.834.168 1.338 0 .46-.062.886-.186 1.278a3.095 3.095 0 0 1-.534 1.02 2.447 2.447 0 0 1-.834.678c-.324.16-.688.24-1.092.24-.344 0-.638-.052-.882-.156a2.201 2.201 0 0 1-.654-.444v2.52H22.33v-8.166h.906c.192 0 .318.09.378.27l.12.57Zm8.656 2.688c-.428.02-.788.058-1.08.114-.292.052-.526.12-.702.204a.923.923 0 0 0-.378.294.639.639 0 0 0-.114.366c0 .26.076.446.228.558.156.112.358.168.606.168.304 0 .566-.054.786-.162.224-.112.442-.28.654-.504v-1.038Zm-3.396-2.67c.708-.648 1.56-.972 2.556-.972.36 0 .682.06.966.18.284.116.524.28.72.492.196.208.344.458.444.75.104.292.156.612.156.96V41h-.672a.708.708 0 0 1-.324-.06c-.076-.044-.136-.13-.18-.258l-.132-.444c-.156.14-.308.264-.456.372a2.804 2.804 0 0 1-.462.264c-.16.072-.332.126-.516.162-.18.04-.38.06-.6.06-.26 0-.5-.034-.72-.102a1.618 1.618 0 0 1-.57-.318 1.414 1.414 0 0 1-.372-.522 1.852 1.852 0 0 1-.132-.726 1.419 1.419 0 0 1 .33-.906c.12-.14.274-.272.462-.396s.418-.232.69-.324c.276-.092.596-.166.96-.222.364-.06.78-.096 1.248-.108v-.36c0-.412-.088-.716-.264-.912-.176-.2-.43-.3-.762-.3-.24 0-.44.028-.6.084-.156.056-.294.12-.414.192l-.33.186a.631.631 0 0 1-.324.084.439.439 0 0 1-.264-.078.716.716 0 0 1-.174-.192l-.264-.474Zm11.602-.858V41h-1.482v-2.724h-2.4V41h-1.482v-6.156h1.482v2.334h2.4v-2.334h1.482Zm6.832 0V41h-1.482v-2.724h-2.4V41h-1.482v-6.156h1.482v2.334h2.4v-2.334h1.482Zm4.192-.096c.456 0 .87.074 1.242.222a2.692 2.692 0 0 1 1.578 1.626c.144.392.216.83.216 1.314 0 .488-.072.928-.216 1.32-.144.392-.35.726-.618 1.002a2.653 2.653 0 0 1-.96.636 3.333 3.333 0 0 1-1.242.222c-.46 0-.878-.074-1.254-.222a2.712 2.712 0 0 1-.966-.636 2.922 2.922 0 0 1-.618-1.002 3.807 3.807 0 0 1-.216-1.32c0-.484.072-.922.216-1.314.148-.392.354-.724.618-.996.268-.272.59-.482.966-.63a3.397 3.397 0 0 1 1.254-.222Zm0 5.202c.512 0 .89-.172 1.134-.516.248-.344.372-.848.372-1.512s-.124-1.17-.372-1.518c-.244-.348-.622-.522-1.134-.522-.52 0-.906.176-1.158.528-.248.348-.372.852-.372 1.512s.124 1.164.372 1.512c.252.344.638.516 1.158.516Zm8.133-2.736c0-.192-.028-.372-.084-.54a1.25 1.25 0 0 0-.24-.45 1.096 1.096 0 0 0-.414-.3 1.358 1.358 0 0 0-.576-.114c-.428 0-.766.122-1.014.366-.244.244-.4.59-.468 1.038h2.796Zm-2.826.894c.024.316.08.59.168.822.088.228.204.418.348.57.144.148.314.26.51.336.2.072.42.108.66.108.24 0 .446-.028.618-.084a2.76 2.76 0 0 0 .456-.186 7.55 7.55 0 0 0 .342-.186.59.59 0 0 1 .288-.084c.124 0 .216.046.276.138l.426.54a2.536 2.536 0 0 1-.552.486 3.281 3.281 0 0 1-1.32.474 4.79 4.79 0 0 1-.666.048 3.33 3.33 0 0 1-1.194-.21 2.726 2.726 0 0 1-.96-.63 2.993 2.993 0 0 1-.642-1.032c-.156-.412-.234-.888-.234-1.428 0-.42.068-.814.204-1.182.136-.372.33-.694.582-.966.256-.276.566-.494.93-.654.368-.16.782-.24 1.242-.24.388 0 .746.062 1.074.186.328.124.61.306.846.546.236.236.42.528.552.876.136.344.204.738.204 1.182 0 .224-.024.376-.072.456-.048.076-.14.114-.276.114h-3.81Z" fill="#2D2D2D"/></svg>