<svg width="163" height="27" fill="none" xmlns="http://www.w3.org/2000/svg"><path d="M12.292 14.846c0 1.1-.267 2.056-.8 2.869-.533.812-1.312 1.439-2.336 1.879-1.015.44-2.251.66-3.707.66-.643 0-1.274-.042-1.891-.127a13.043 13.043 0 0 1-1.765-.368 10.997 10.997 0 0 1-1.6-.622V15.48c.88.39 1.795.741 2.743 1.054.947.313 1.887.47 2.818.47.643 0 1.16-.085 1.549-.254.398-.17.685-.402.863-.698.178-.296.267-.635.267-1.016 0-.465-.157-.863-.47-1.193-.313-.33-.745-.64-1.295-.927a52.459 52.459 0 0 0-1.84-.927 21.18 21.18 0 0 1-1.41-.736 8.243 8.243 0 0 1-1.447-1.08A5.203 5.203 0 0 1 .84 8.639C.553 8.028.409 7.3.409 6.454c0-1.109.254-2.057.762-2.844.508-.787 1.231-1.388 2.17-1.802.949-.424 2.066-.635 3.352-.635.965 0 1.883.114 2.755.343.88.22 1.799.541 2.755.964l-1.27 3.06a21.035 21.035 0 0 0-2.297-.8 7.453 7.453 0 0 0-2.07-.292c-.49 0-.91.08-1.256.241-.347.153-.61.373-.788.66-.177.28-.266.606-.266.978 0 .44.127.813.38 1.117.263.297.652.584 1.169.864.524.279 1.176.605 1.955.977.948.449 1.756.918 2.425 1.41.677.482 1.197 1.053 1.561 1.713.364.652.546 1.464.546 2.438Zm8.492-14.6v4.025c0 .702-.026 1.37-.076 2.005a52.425 52.425 0 0 1-.102 1.346h.203c.305-.49.664-.889 1.08-1.193a4.445 4.445 0 0 1 1.396-.673 5.985 5.985 0 0 1 1.637-.216c1.024 0 1.917.182 2.679.546.762.355 1.354.918 1.777 1.688.424.762.635 1.752.635 2.971V20h-3.872v-8.29c0-1.016-.186-1.782-.558-2.298-.373-.516-.948-.774-1.727-.774-.779 0-1.392.182-1.84.546-.45.355-.767.884-.953 1.587-.186.693-.28 1.544-.28 2.551V20h-3.871V.246h3.872Zm27.674 12.632c0 1.185-.16 2.234-.483 3.148-.313.914-.774 1.689-1.383 2.324-.601.626-1.33 1.1-2.184 1.421-.846.322-1.803.483-2.87.483-.998 0-1.916-.16-2.754-.483a6.122 6.122 0 0 1-2.17-1.421c-.61-.635-1.084-1.41-1.423-2.324-.33-.914-.495-1.963-.495-3.148 0-1.574.28-2.907.838-4 .559-1.09 1.354-1.92 2.387-2.487 1.032-.567 2.264-.851 3.694-.851 1.329 0 2.505.284 3.53.85 1.032.568 1.84 1.397 2.424 2.489.593 1.092.889 2.425.889 3.999Zm-9.814 0c0 .93.102 1.714.305 2.349.203.634.52 1.113.952 1.434.432.322.995.483 1.689.483.685 0 1.24-.161 1.663-.483.431-.322.745-.8.94-1.434.202-.635.304-1.418.304-2.35 0-.939-.102-1.717-.305-2.335-.194-.626-.508-1.096-.94-1.41-.43-.312-.994-.469-1.688-.469-1.024 0-1.769.351-2.234 1.054-.457.702-.686 1.756-.686 3.16Zm22.47-7.338c1.6 0 2.89.622 3.872 1.866.99 1.244 1.485 3.068 1.485 5.472 0 1.608-.233 2.962-.698 4.062-.466 1.092-1.109 1.917-1.93 2.476-.82.559-1.765.838-2.831.838-.685 0-1.274-.085-1.765-.254a4.535 4.535 0 0 1-1.257-.673 5.98 5.98 0 0 1-.9-.889h-.204a10.966 10.966 0 0 1 .203 2.082v5.726h-3.872V5.806h3.148l.546 1.841h.178c.254-.38.563-.732.927-1.053.364-.322.8-.576 1.308-.762.516-.195 1.113-.292 1.79-.292ZM59.87 8.638c-.678 0-1.215.14-1.613.419-.398.279-.69.698-.876 1.256-.178.56-.275 1.266-.292 2.12v.42c0 .914.085 1.688.254 2.323.178.634.47 1.117.876 1.447.415.33.982.495 1.701.495.593 0 1.08-.165 1.46-.495.381-.33.665-.813.85-1.447.195-.643.293-1.426.293-2.349 0-1.388-.216-2.433-.648-3.136-.431-.702-1.1-1.053-2.005-1.053Z" fill="#2D2D2D"/><path d="M88.382 10.694c0 1.43-.178 2.734-.534 3.91-.355 1.169-.897 2.176-1.625 3.022-.719.846-1.633 1.498-2.742 1.955-1.108.449-2.42.673-3.935.673-1.515 0-2.827-.224-3.936-.673-1.109-.457-2.027-1.109-2.755-1.955-.72-.846-1.257-1.858-1.612-3.034-.355-1.177-.533-2.484-.533-3.923 0-1.921.313-3.593.94-5.015.634-1.43 1.607-2.539 2.92-3.326 1.31-.787 2.978-1.18 5.001-1.18 2.014 0 3.669.393 4.964 1.18 1.303.787 2.268 1.896 2.895 3.326.634 1.43.952 3.11.952 5.04Zm-13.546 0c0 1.295.16 2.412.482 3.352.33.93.842 1.65 1.536 2.158.694.5 1.591.75 2.692.75 1.117 0 2.022-.25 2.716-.75.695-.508 1.198-1.227 1.511-2.158.322-.94.483-2.057.483-3.352 0-1.946-.364-3.478-1.092-4.595-.728-1.118-1.926-1.676-3.593-1.676-1.109 0-2.014.254-2.717.762-.694.499-1.206 1.218-1.536 2.158-.322.93-.482 2.048-.482 3.351Zm26.709-5.154c1.515 0 2.734.415 3.656 1.244.923.821 1.384 2.141 1.384 3.961V20h-3.872v-8.29c0-1.016-.186-1.782-.559-2.298-.363-.516-.939-.774-1.726-.774-1.185 0-1.993.402-2.425 1.206-.431.804-.647 1.963-.647 3.478V20h-3.872V5.807h2.958l.52 1.815h.216c.305-.49.681-.889 1.13-1.193.457-.305.96-.53 1.51-.673a6.894 6.894 0 0 1 1.727-.216ZM116.004 20h-3.873V.246h3.873V20Zm9.507-14.193V20h-3.872V5.807h3.872Zm-1.93-5.56c.576 0 1.071.135 1.485.405.415.263.623.758.623 1.486 0 .72-.208 1.218-.623 1.498-.414.27-.909.406-1.485.406-.584 0-1.083-.135-1.498-.406-.406-.28-.609-.779-.609-1.498 0-.728.203-1.223.609-1.486.415-.27.914-.406 1.498-.406Zm15.627 5.293c1.515 0 2.733.415 3.656 1.244.922.821 1.384 2.141 1.384 3.961V20h-3.872v-8.29c0-1.016-.187-1.782-.559-2.298-.364-.516-.94-.774-1.727-.774-1.185 0-1.993.402-2.424 1.206-.432.804-.648 1.963-.648 3.478V20h-3.872V5.807h2.958l.521 1.815h.215c.305-.49.682-.889 1.13-1.193a4.97 4.97 0 0 1 1.511-.673 6.897 6.897 0 0 1 1.727-.216Zm16.438 0c1.312 0 2.442.254 3.39.762.948.5 1.68 1.227 2.196 2.183.517.957.775 2.125.775 3.504v1.88h-9.154c.043 1.091.369 1.95.978 2.576.618.618 1.473.927 2.564.927.906 0 1.735-.093 2.489-.28a12.678 12.678 0 0 0 2.323-.837v2.996a9.22 9.22 0 0 1-2.209.762c-.762.16-1.688.24-2.78.24-1.422 0-2.683-.262-3.783-.786-1.092-.525-1.951-1.325-2.578-2.4-.617-1.075-.926-2.429-.926-4.062 0-1.659.279-3.039.838-4.139.567-1.109 1.354-1.938 2.361-2.488 1.007-.559 2.179-.838 3.516-.838Zm.026 2.755c-.753 0-1.38.241-1.879.724-.491.482-.774 1.24-.851 2.272h5.434c-.009-.575-.114-1.088-.317-1.536a2.387 2.387 0 0 0-.889-1.067c-.389-.262-.889-.393-1.498-.393Z" fill="#3670C7"/></svg>