<svg width="113" height="19" fill="none" xmlns="http://www.w3.org/2000/svg"><path d="M9.202 10.432c0 .761-.184 1.423-.554 1.986-.369.563-.908.996-1.617 1.3-.703.305-1.558.458-2.566.458-.445 0-.882-.03-1.31-.088a9.027 9.027 0 0 1-1.221-.255 7.608 7.608 0 0 1-1.108-.43V10.87c.61.27 1.242.513 1.899.73a6.192 6.192 0 0 0 1.95.325c.446 0 .804-.059 1.073-.176.275-.117.475-.278.598-.483a1.34 1.34 0 0 0 .184-.704c0-.322-.108-.597-.325-.826-.217-.228-.516-.442-.896-.641-.375-.2-.8-.413-1.275-.642-.299-.14-.624-.31-.975-.51a5.709 5.709 0 0 1-1.002-.747 3.602 3.602 0 0 1-.783-1.063c-.199-.422-.298-.926-.298-1.512 0-.768.175-1.424.527-1.969.351-.545.852-.96 1.503-1.248.656-.293 1.43-.44 2.32-.44.668 0 1.304.08 1.907.238.61.152 1.246.375 1.908.668L8.26 3.99a14.562 14.562 0 0 0-1.59-.553 5.16 5.16 0 0 0-1.433-.203c-.34 0-.63.056-.87.167-.24.106-.422.258-.545.457a1.233 1.233 0 0 0-.184.677c0 .305.088.563.263.774.182.205.452.404.809.597.363.194.814.42 1.353.677.657.31 1.216.636 1.68.976.468.334.828.73 1.08 1.186.252.451.378 1.014.378 1.688ZM15.081.324V3.11c0 .487-.018.95-.053 1.389-.03.44-.053.75-.07.932h.14c.211-.34.46-.616.748-.827.293-.21.615-.366.966-.465.352-.1.73-.15 1.134-.15.71 0 1.327.126 1.855.378.527.246.937.636 1.23 1.17.293.526.44 1.212.44 2.056V14H18.79V8.26c0-.702-.129-1.233-.387-1.59s-.656-.536-1.195-.536c-.54 0-.964.126-1.274.378-.311.246-.53.612-.66 1.098-.129.48-.193 1.07-.193 1.767V14h-2.68V.324h2.68Zm19.16 8.745c0 .82-.112 1.547-.335 2.18a4.294 4.294 0 0 1-.958 1.608c-.416.434-.92.762-1.512.985-.586.223-1.248.334-1.986.334a5.28 5.28 0 0 1-1.907-.334 4.24 4.24 0 0 1-1.503-.985 4.59 4.59 0 0 1-.985-1.608c-.228-.633-.342-1.36-.342-2.18 0-1.09.193-2.012.58-2.768a3.98 3.98 0 0 1 1.652-1.723c.715-.392 1.567-.589 2.558-.589.92 0 1.734.197 2.443.59.715.392 1.274.966 1.679 1.722.41.756.615 1.678.615 2.768Zm-6.795 0c0 .645.07 1.187.211 1.626.14.44.36.77.66.993.298.223.688.335 1.168.335.475 0 .859-.112 1.152-.335.298-.222.515-.553.65-.993.14-.44.21-.981.21-1.626 0-.65-.07-1.19-.21-1.617-.135-.433-.352-.759-.65-.975-.3-.217-.689-.326-1.17-.326-.708 0-1.224.244-1.546.73-.317.486-.475 1.216-.475 2.188Zm15.556-5.08c1.107 0 2 .43 2.68 1.292.686.862 1.029 2.124 1.029 3.788 0 1.114-.161 2.051-.484 2.813-.322.756-.767 1.327-1.336 1.714-.568.386-1.221.58-1.96.58-.474 0-.881-.059-1.221-.176a3.14 3.14 0 0 1-.87-.466 4.146 4.146 0 0 1-.624-.615h-.141a7.583 7.583 0 0 1 .14 1.441v3.964h-2.68V4.174h2.18l.377 1.274h.124c.175-.263.39-.507.641-.73.252-.222.554-.398.906-.527a3.5 3.5 0 0 1 1.239-.202Zm-.862 2.145c-.468 0-.84.096-1.116.29-.275.193-.477.483-.606.87-.123.387-.19.876-.202 1.468v.29c0 .633.058 1.169.175 1.608.123.44.326.774.607 1.002.287.229.68.343 1.178.343.41 0 .747-.114 1.01-.343.264-.228.46-.562.59-1.002.134-.445.201-.987.201-1.626 0-.96-.15-1.684-.448-2.17-.299-.487-.762-.73-1.389-.73Z" fill="#2D2D2D"/><path d="M61.88 7.558c0 .99-.123 1.892-.37 2.707a5.714 5.714 0 0 1-1.125 2.091c-.498.586-1.13 1.038-1.898 1.354-.768.31-1.676.466-2.725.466-1.048 0-1.957-.155-2.724-.466a4.964 4.964 0 0 1-1.907-1.354c-.498-.585-.87-1.286-1.117-2.1-.246-.815-.369-1.72-.369-2.716 0-1.33.217-2.487.65-3.472a4.965 4.965 0 0 1 2.022-2.302c.908-.545 2.063-.818 3.463-.818 1.395 0 2.54.273 3.437.818a4.93 4.93 0 0 1 2.003 2.302c.44.99.66 2.154.66 3.49Zm-9.378 0c0 .896.111 1.67.334 2.32.228.645.583 1.143 1.063 1.494.48.346 1.102.519 1.863.519.774 0 1.4-.173 1.881-.519.48-.351.83-.85 1.046-1.494.223-.65.334-1.424.334-2.32 0-1.348-.252-2.409-.756-3.182-.504-.773-1.333-1.16-2.487-1.16-.768 0-1.395.176-1.88.527-.481.346-.836.844-1.064 1.494-.223.645-.334 1.418-.334 2.32Zm18.49-3.569c1.05 0 1.893.287 2.532.862.639.568.958 1.482.958 2.742V14h-2.68V8.26c0-.702-.13-1.233-.387-1.59-.252-.357-.65-.536-1.196-.536-.82 0-1.38.278-1.678.835-.3.556-.449 1.36-.449 2.408V14h-2.68V4.174h2.048l.36 1.257h.15a2.71 2.71 0 0 1 .782-.827 3.44 3.44 0 0 1 1.046-.465c.386-.1.785-.15 1.195-.15ZM81.003 14h-2.68V.324h2.68V14Zm6.582-9.826V14h-2.68V4.174h2.68ZM86.25.324c.398 0 .74.094 1.028.281.287.182.43.525.43 1.029 0 .498-.143.844-.43 1.037-.287.187-.63.281-1.028.281-.405 0-.75-.094-1.038-.281-.28-.193-.421-.54-.421-1.037 0-.504.14-.847.421-1.029.288-.187.633-.28 1.038-.28ZM97.067 3.99c1.049 0 1.892.287 2.531.862.639.568.958 1.482.958 2.742V14h-2.68V8.26c0-.702-.13-1.233-.387-1.59-.252-.357-.65-.536-1.196-.536-.82 0-1.38.278-1.678.835-.3.556-.449 1.36-.449 2.408V14h-2.68V4.174h2.048l.36 1.257h.15c.21-.34.471-.616.782-.827.316-.21.665-.366 1.045-.465.387-.1.786-.15 1.196-.15Zm11.381 0c.908 0 1.69.176 2.346.528a3.61 3.61 0 0 1 1.521 1.511c.357.662.536 1.471.536 2.426v1.3h-6.337c.029.757.255 1.351.677 1.785.427.428 1.019.642 1.775.642.627 0 1.201-.065 1.723-.194a8.782 8.782 0 0 0 1.608-.58v2.074c-.486.24-.996.417-1.529.528-.527.111-1.169.167-1.925.167-.984 0-1.857-.182-2.619-.545a4.064 4.064 0 0 1-1.784-1.661c-.428-.744-.642-1.682-.642-2.813 0-1.148.193-2.103.58-2.865.393-.768.938-1.342 1.635-1.723.697-.386 1.509-.58 2.435-.58Zm.017 1.907c-.521 0-.955.167-1.301.501-.34.334-.536.859-.589 1.574h3.762a2.645 2.645 0 0 0-.22-1.064 1.642 1.642 0 0 0-.615-.738c-.269-.182-.615-.273-1.037-.273Z" fill="#3670C7"/></svg>