<svg width="52" height="44" fill="none" xmlns="http://www.w3.org/2000/svg"><path d="M26 15c2.762 0 5-2.238 5-5 0-2.763-2.238-5-5-5s-5 2.237-5 5c0 2.762 2.238 5 5 5Zm0 2.5c-3.337 0-10 1.675-10 5V25h20v-2.5c0-3.325-6.663-5-10-5ZM7.98 41H6.354v-7.434H2.586V41H.966v-8.676H7.98V41Zm3.082-1.596c.168.204.35.348.546.432.2.084.416.126.648.126.224 0 .426-.042.606-.126.18-.084.332-.212.456-.384.128-.172.226-.388.294-.648.068-.264.102-.574.102-.93 0-.36-.03-.664-.09-.912a1.73 1.73 0 0 0-.246-.612.978.978 0 0 0-.396-.342 1.206 1.206 0 0 0-.522-.108c-.308 0-.57.066-.786.198-.216.128-.42.31-.612.546v2.76Zm-.078-3.72a3.21 3.21 0 0 1 .858-.69c.32-.176.696-.264 1.128-.264a2 2 0 0 1 .918.21c.28.14.52.344.72.612.204.264.36.592.468.984.112.388.168.834.168 1.338 0 .46-.062.886-.186 1.278a3.095 3.095 0 0 1-.534 1.02 2.447 2.447 0 0 1-.834.678c-.324.16-.688.24-1.092.24-.344 0-.638-.052-.882-.156a2.201 2.201 0 0 1-.654-.444v2.52H9.58v-8.166h.906c.192 0 .318.09.378.27l.12.57Zm8.128-.936c.456 0 .87.074 1.242.222.376.148.696.358.96.63.268.272.474.604.618.996.144.392.216.83.216 1.314 0 .488-.072.928-.216 1.32-.144.392-.35.726-.618 1.002a2.653 2.653 0 0 1-.96.636 3.333 3.333 0 0 1-1.242.222c-.46 0-.878-.074-1.254-.222a2.712 2.712 0 0 1-.966-.636 2.922 2.922 0 0 1-.618-1.002 3.807 3.807 0 0 1-.216-1.32c0-.484.072-.922.216-1.314.148-.392.354-.724.618-.996.268-.272.59-.482.966-.63a3.397 3.397 0 0 1 1.254-.222Zm0 5.202c.512 0 .89-.172 1.134-.516.248-.344.372-.848.372-1.512s-.124-1.17-.372-1.518c-.244-.348-.622-.522-1.134-.522-.52 0-.906.176-1.158.528-.248.348-.372.852-.372 1.512s.124 1.164.372 1.512c.252.344.638.516 1.158.516Zm8.469.036c.596-.044 1.056-.244 1.38-.6.328-.356.492-.844.492-1.464s-.164-1.108-.492-1.464c-.324-.36-.784-.562-1.38-.606v4.134Zm-1.296-4.134c-.296.024-.56.088-.792.192a1.76 1.76 0 0 0-.588.414c-.16.176-.282.388-.366.636-.084.244-.126.52-.126.828 0 .308.042.586.126.834.084.244.206.454.366.63.164.172.36.31.588.414.232.1.496.162.792.186v-4.134Zm1.344-1.098c.492.028.94.122 1.344.282.408.156.756.37 1.044.642.292.272.518.596.678.972.16.376.24.796.24 1.26 0 .468-.08.892-.24 1.272-.16.376-.386.7-.678.972a3.204 3.204 0 0 1-1.044.648c-.404.16-.852.254-1.344.282v1.98h-1.392v-1.98a4.355 4.355 0 0 1-1.35-.282 3.29 3.29 0 0 1-1.044-.648 2.861 2.861 0 0 1-.672-.972c-.16-.38-.24-.804-.24-1.272 0-.464.08-.884.24-1.26.16-.376.384-.7.672-.972.292-.272.64-.486 1.044-.642.408-.16.858-.254 1.35-.282v-2.43h1.392v2.43Zm9.96.09V41h-1.483v-3.594c0-.092.004-.192.012-.3a9.63 9.63 0 0 1 .042-.336 2.91 2.91 0 0 1-.384.654l-.282.39-.384.546-.438.612-1.182 1.668c-.056.084-.13.166-.222.246a.441.441 0 0 1-.306.12h-.906V34.85h1.482v3.594c0 .092-.006.194-.018.306-.008.108-.02.218-.036.33a3.127 3.127 0 0 1 .378-.648c.072-.1.164-.23.276-.39l.39-.54.438-.624c.348-.492.744-1.048 1.188-1.668.056-.088.13-.17.222-.246a.463.463 0 0 1 .312-.12h.9ZM44.763 41h-1.482v-5.022H41.77a17.108 17.108 0 0 1-.222 1.956c-.1.544-.22 1.006-.36 1.386a3.56 3.56 0 0 1-.462.918 2.196 2.196 0 0 1-.54.534c-.192.128-.39.212-.594.252-.204.044-.41.066-.618.066-.22 0-.382-.02-.486-.06-.1-.036-.15-.088-.15-.156v-.924h.354c.132 0 .264-.02.396-.06a.934.934 0 0 0 .384-.246c.124-.124.242-.3.354-.528.112-.232.214-.536.306-.912.096-.38.18-.844.252-1.392.072-.548.128-1.204.168-1.968h4.212V41Zm3.974-1.062c.336 0 .586-.084.75-.252a.877.877 0 0 0 .252-.648c0-.112-.02-.22-.06-.324a.719.719 0 0 0-.174-.276.801.801 0 0 0-.312-.186 1.319 1.319 0 0 0-.462-.072h-1.098v1.758h1.104Zm-.012-2.814c.428 0 .79.052 1.086.156.296.104.536.244.72.42.184.176.316.38.396.612.084.228.126.468.126.72 0 .288-.052.554-.156.798-.1.24-.25.448-.45.624a2.085 2.085 0 0 1-.726.402 3.05 3.05 0 0 1-.978.144h-2.52v-6.156h1.41v2.28h1.092Z" fill="#2D2D2D"/></svg>