<svg width="82" height="42" fill="none" xmlns="http://www.w3.org/2000/svg"><rect width="82" height="42" rx="21" fill="#3670C7"/><path d="M45.375 23.5h-.987l-.35-.337A8.089 8.089 0 0 0 46 17.875a8.125 8.125 0 0 0-8.125-8.125 8.125 8.125 0 0 0-8.125 8.125A8.125 8.125 0 0 0 37.875 26a8.089 8.089 0 0 0 5.288-1.962l.337.35v.987l6.25 6.238 1.862-1.863-6.237-6.25Zm-7.5 0a5.617 5.617 0 0 1-5.625-5.625 5.617 5.617 0 0 1 5.625-5.625 5.617 5.617 0 0 1 5.625 5.625 5.617 5.617 0 0 1-5.625 5.625Z" fill="#fff"/></svg>