<svg width="88" height="88" fill="none" xmlns="http://www.w3.org/2000/svg"><circle cx="44" cy="44" r="44" fill="#FFBD13"/><path d="M10.71 44.395h7.77v3.09h-7.77v-3.09Zm25.006 7.83V55h-12v-2.775h4.395V39.58c0-.5.015-1.015.045-1.545l-3.12 2.61c-.18.14-.36.23-.54.27a1.305 1.305 0 0 1-.9-.15.953.953 0 0 1-.27-.255l-1.17-1.605 6.615-5.625h3.045v18.945h3.9Zm18.528-8.07c0 1.89-.205 3.535-.615 4.935-.4 1.39-.96 2.54-1.68 3.45-.71.91-1.555 1.59-2.535 2.04-.97.44-2.02.66-3.15.66s-2.18-.22-3.15-.66c-.96-.45-1.795-1.13-2.505-2.04-.71-.91-1.265-2.06-1.665-3.45-.4-1.4-.6-3.045-.6-4.935 0-1.9.2-3.545.6-4.935.4-1.39.955-2.54 1.665-3.45.71-.91 1.545-1.585 2.505-2.025.97-.45 2.02-.675 3.15-.675s2.18.225 3.15.675c.98.44 1.825 1.115 2.535 2.025.72.91 1.28 2.06 1.68 3.45.41 1.39.615 3.035.615 4.935Zm-3.825 0c0-1.57-.115-2.87-.345-3.9-.23-1.03-.54-1.85-.93-2.46-.38-.61-.82-1.035-1.32-1.275-.5-.25-1.02-.375-1.56-.375-.53 0-1.045.125-1.545.375-.49.24-.925.665-1.305 1.275-.38.61-.685 1.43-.915 2.46-.22 1.03-.33 2.33-.33 3.9 0 1.57.11 2.87.33 3.9.23 1.03.535 1.85.915 2.46.38.61.815 1.04 1.305 1.29a3.532 3.532 0 0 0 3.105 0c.5-.25.94-.68 1.32-1.29.39-.61.7-1.43.93-2.46.23-1.03.345-2.33.345-3.9ZM66.17 38.56c0 .82-.14 1.56-.42 2.22a5.214 5.214 0 0 1-1.095 1.695 4.976 4.976 0 0 1-3.51 1.44 5.21 5.21 0 0 1-1.995-.375 4.682 4.682 0 0 1-1.59-1.065 5.08 5.08 0 0 1-1.035-1.695c-.25-.66-.375-1.4-.375-2.22 0-.84.125-1.6.375-2.28.25-.68.595-1.255 1.035-1.725.45-.47.98-.83 1.59-1.08.61-.26 1.275-.39 1.995-.39.72 0 1.385.13 1.995.39.62.25 1.155.61 1.605 1.08.45.47.8 1.045 1.05 1.725.25.68.375 1.44.375 2.28Zm-2.85 0c0-.58-.06-1.065-.18-1.455-.11-.39-.265-.705-.465-.945-.19-.24-.42-.41-.69-.51-.26-.11-.54-.165-.84-.165-.3 0-.58.055-.84.165-.26.1-.485.27-.675.51-.18.24-.325.555-.435.945-.11.39-.165.875-.165 1.455 0 .56.055 1.03.165 1.41.11.37.255.67.435.9.19.23.415.395.675.495.26.1.54.15.84.15.3 0 .58-.05.84-.15.27-.1.5-.265.69-.495.2-.23.355-.53.465-.9.12-.38.18-.85.18-1.41Zm10.065-4.665a2.5 2.5 0 0 1 .45-.405c.18-.12.43-.18.75-.18h2.7l-16.11 21.135a1.81 1.81 0 0 1-.465.405c-.18.1-.4.15-.66.15h-2.76l16.095-21.105Zm5.04 16.005c0 .82-.14 1.56-.42 2.22a5.214 5.214 0 0 1-1.095 1.695c-.46.46-.995.82-1.605 1.08-.61.25-1.245.375-1.905.375a5.21 5.21 0 0 1-1.995-.375 4.87 4.87 0 0 1-1.59-1.08 5.08 5.08 0 0 1-1.035-1.695c-.25-.66-.375-1.4-.375-2.22 0-.84.125-1.6.375-2.28.25-.68.595-1.255 1.035-1.725.45-.47.98-.83 1.59-1.08.61-.26 1.275-.39 1.995-.39.72 0 1.385.13 1.995.39.62.25 1.15.61 1.59 1.08.45.47.8 1.045 1.05 1.725.26.68.39 1.44.39 2.28Zm-2.865 0c0-.58-.055-1.065-.165-1.455-.11-.39-.265-.705-.465-.945-.19-.24-.42-.41-.69-.51-.26-.11-.54-.165-.84-.165-.3 0-.58.055-.84.165-.26.1-.485.27-.675.51-.19.24-.34.555-.45.945-.1.39-.15.875-.15 1.455 0 .56.05 1.03.15 1.41.11.38.26.685.45.915.19.23.415.395.675.495.26.1.54.15.84.15.3 0 .58-.05.84-.15.27-.1.5-.265.69-.495.2-.23.355-.535.465-.915.11-.38.165-.85.165-1.41Z" fill="#fff"/></svg>