<svg width="32" height="32" fill="none" xmlns="http://www.w3.org/2000/svg"><circle cx="16" cy="16" r="16" fill="#FFBD13"/><path d="M2.684 15.758h3.108v1.236H2.684v-1.236Zm10.003 3.132V20h-4.8v-1.11h1.758v-5.058c0-.2.006-.406.018-.618l-1.248 1.044a.548.548 0 0 1-.216.108.522.522 0 0 1-.36-.06.381.381 0 0 1-.108-.102l-.468-.642 2.646-2.25h1.218v7.578h1.56Zm3.187-4.416c.191-.04.376-.068.551-.084.177-.02.346-.03.51-.03.457 0 .859.068 1.207.204.348.136.64.324.875.564.236.24.415.522.535.846.12.32.18.666.18 1.038 0 .46-.082.88-.247 1.26-.16.38-.383.706-.671.978-.288.268-.63.476-1.026.624-.393.148-.82.222-1.285.222-.271 0-.53-.028-.774-.084a4.094 4.094 0 0 1-.69-.222 4.432 4.432 0 0 1-.594-.324 4.062 4.062 0 0 1-.486-.39l.457-.63a.443.443 0 0 1 .377-.204c.1 0 .203.032.307.096.104.064.222.134.354.21.135.076.293.146.473.21.184.064.404.096.66.096.273 0 .512-.044.72-.132.209-.088.38-.21.517-.366.14-.16.243-.348.311-.564.072-.22.108-.458.108-.714 0-.472-.137-.84-.413-1.104-.272-.268-.676-.402-1.212-.402-.412 0-.834.076-1.266.228l-.925-.264.72-4.212h4.284v.63a.698.698 0 0 1-.198.516c-.131.132-.355.198-.672.198H16.18l-.306 1.806Zm8.994-1.05c0 .328-.056.624-.168.888-.108.264-.254.49-.438.678a1.99 1.99 0 0 1-1.404.576c-.288 0-.554-.05-.798-.15a1.873 1.873 0 0 1-.636-.426 2.032 2.032 0 0 1-.414-.678c-.1-.264-.15-.56-.15-.888 0-.336.05-.64.15-.912.1-.272.238-.502.414-.69.18-.188.392-.332.636-.432.244-.104.51-.156.798-.156.288 0 .554.052.798.156.248.1.462.244.642.432s.32.418.42.69c.1.272.15.576.15.912Zm-1.14 0c0-.232-.024-.426-.072-.582a1.013 1.013 0 0 0-.186-.378.625.625 0 0 0-.276-.204.853.853 0 0 0-.336-.066.853.853 0 0 0-.336.066.631.631 0 0 0-.27.204c-.072.096-.13.222-.174.378a2.18 2.18 0 0 0-.066.582c0 .224.022.412.066.564.044.148.102.268.174.36a.65.65 0 0 0 .27.198c.104.04.216.06.336.06.12 0 .232-.02.336-.06.108-.04.2-.106.276-.198a.956.956 0 0 0 .186-.36c.048-.152.072-.34.072-.564Zm4.026-1.866a1 1 0 0 1 .18-.162.537.537 0 0 1 .3-.072h1.08l-6.444 8.454a.724.724 0 0 1-.186.162.537.537 0 0 1-.264.06h-1.104l6.438-8.442Zm2.016 6.402c0 .328-.056.624-.168.888-.108.264-.254.49-.438.678a2.017 2.017 0 0 1-.642.432c-.244.1-.498.15-.762.15-.288 0-.554-.05-.798-.15a1.948 1.948 0 0 1-.636-.432 2.032 2.032 0 0 1-.414-.678c-.1-.264-.15-.56-.15-.888 0-.336.05-.64.15-.912.1-.272.238-.502.414-.69.18-.188.392-.332.636-.432.244-.104.51-.156.798-.156.288 0 .554.052.798.156.248.1.46.244.636.432.18.188.32.418.42.69.104.272.156.576.156.912Zm-1.146 0a2.18 2.18 0 0 0-.066-.582 1.013 1.013 0 0 0-.186-.378.625.625 0 0 0-.276-.204.853.853 0 0 0-.336-.066.853.853 0 0 0-.336.066.631.631 0 0 0-.27.204 1.073 1.073 0 0 0-.18.378c-.04.156-.06.35-.06.582 0 .224.02.412.06.564.044.152.104.274.18.366a.65.65 0 0 0 .27.198c.104.04.216.06.336.06.12 0 .232-.02.336-.06.108-.04.2-.106.276-.198a.955.955 0 0 0 .186-.366c.044-.152.066-.34.066-.564Z" fill="#fff"/></svg>