<svg width="88" height="88" fill="none" xmlns="http://www.w3.org/2000/svg"><circle cx="44" cy="44" r="44" fill="#FFBD13"/><path d="M10.71 44.395h7.77v3.09h-7.77v-3.09Zm25.006 7.83V55h-12v-2.775h4.395V39.58c0-.5.015-1.015.045-1.545l-3.12 2.61c-.18.14-.36.23-.54.27a1.305 1.305 0 0 1-.9-.15.953.953 0 0 1-.27-.255l-1.17-1.605 6.615-5.625h3.045v18.945h3.9Zm7.968-11.04c.48-.1.94-.17 1.38-.21.44-.05.865-.075 1.275-.075 1.14 0 2.145.17 3.015.51.87.34 1.6.81 2.19 1.41.59.6 1.035 1.305 1.335 2.115.3.8.45 1.665.45 2.595 0 1.15-.205 2.2-.615 3.15-.4.95-.96 1.765-1.68 2.445a7.647 7.647 0 0 1-2.565 1.56c-.98.37-2.05.555-3.21.555a8.63 8.63 0 0 1-1.935-.21c-.61-.14-1.185-.325-1.725-.555a11.08 11.08 0 0 1-1.485-.81c-.45-.31-.855-.635-1.215-.975l1.14-1.575c.24-.34.555-.51.945-.51.25 0 .505.08.765.24.26.16.555.335.885.525.34.19.735.365 1.185.525.46.16 1.01.24 1.65.24.68 0 1.28-.11 1.8-.33.52-.22.95-.525 1.29-.915.35-.4.61-.87.78-1.41.18-.55.27-1.145.27-1.785 0-1.18-.345-2.1-1.035-2.76-.68-.67-1.69-1.005-3.03-1.005-1.03 0-2.085.19-3.165.57l-2.31-.66 1.8-10.53h10.71v1.575c0 .53-.165.96-.495 1.29-.33.33-.89.495-1.68.495h-5.955l-.765 4.515ZM66.17 38.56c0 .82-.14 1.56-.42 2.22a5.214 5.214 0 0 1-1.095 1.695 4.976 4.976 0 0 1-3.51 1.44 5.21 5.21 0 0 1-1.995-.375 4.682 4.682 0 0 1-1.59-1.065 5.08 5.08 0 0 1-1.035-1.695c-.25-.66-.375-1.4-.375-2.22 0-.84.125-1.6.375-2.28.25-.68.595-1.255 1.035-1.725.45-.47.98-.83 1.59-1.08.61-.26 1.275-.39 1.995-.39.72 0 1.385.13 1.995.39.62.25 1.155.61 1.605 1.08.45.47.8 1.045 1.05 1.725.25.68.375 1.44.375 2.28Zm-2.85 0c0-.58-.06-1.065-.18-1.455-.11-.39-.265-.705-.465-.945-.19-.24-.42-.41-.69-.51-.26-.11-.54-.165-.84-.165-.3 0-.58.055-.84.165-.26.1-.485.27-.675.51-.18.24-.325.555-.435.945-.11.39-.165.875-.165 1.455 0 .56.055 1.03.165 1.41.11.37.255.67.435.9.19.23.415.395.675.495.26.1.54.15.84.15.3 0 .58-.05.84-.15.27-.1.5-.265.69-.495.2-.23.355-.53.465-.9.12-.38.18-.85.18-1.41Zm10.065-4.665a2.5 2.5 0 0 1 .45-.405c.18-.12.43-.18.75-.18h2.7l-16.11 21.135a1.81 1.81 0 0 1-.465.405c-.18.1-.4.15-.66.15h-2.76l16.095-21.105Zm5.04 16.005c0 .82-.14 1.56-.42 2.22a5.214 5.214 0 0 1-1.095 1.695c-.46.46-.995.82-1.605 1.08-.61.25-1.245.375-1.905.375a5.21 5.21 0 0 1-1.995-.375 4.87 4.87 0 0 1-1.59-1.08 5.08 5.08 0 0 1-1.035-1.695c-.25-.66-.375-1.4-.375-2.22 0-.84.125-1.6.375-2.28.25-.68.595-1.255 1.035-1.725.45-.47.98-.83 1.59-1.08.61-.26 1.275-.39 1.995-.39.72 0 1.385.13 1.995.39.62.25 1.15.61 1.59 1.08.45.47.8 1.045 1.05 1.725.26.68.39 1.44.39 2.28Zm-2.865 0c0-.58-.055-1.065-.165-1.455-.11-.39-.265-.705-.465-.945-.19-.24-.42-.41-.69-.51-.26-.11-.54-.165-.84-.165-.3 0-.58.055-.84.165-.26.1-.485.27-.675.51-.19.24-.34.555-.45.945-.1.39-.15.875-.15 1.455 0 .56.05 1.03.15 1.41.11.38.26.685.45.915.19.23.415.395.675.495.26.1.54.15.84.15.3 0 .58-.05.84-.15.27-.1.5-.265.69-.495.2-.23.355-.535.465-.915.11-.38.165-.85.165-1.41Z" fill="#fff"/></svg>