<svg width="66" height="66" fill="none" xmlns="http://www.w3.org/2000/svg"><circle cx="33" cy="33" r="33" fill="#FFBD13"/><path d="M10.14 31.93h5.18v2.06h-5.18v-2.06Zm16.67 5.22V39h-8v-1.85h2.93v-8.43c0-.333.01-.677.03-1.03l-2.08 1.74a.915.915 0 0 1-.36.18.87.87 0 0 1-.6-.1.635.635 0 0 1-.18-.17l-.78-1.07 4.41-3.75h2.03v12.63h2.6Zm5.313-7.36c.32-.067.626-.113.92-.14a7.54 7.54 0 0 1 .85-.05c.76 0 1.43.113 2.01.34.58.227 1.066.54 1.46.94.393.4.69.87.89 1.41.2.533.3 1.11.3 1.73 0 .767-.137 1.467-.41 2.1a4.746 4.746 0 0 1-1.12 1.63c-.48.447-1.05.793-1.71 1.04a6.011 6.011 0 0 1-2.14.37c-.454 0-.884-.047-1.29-.14a6.823 6.823 0 0 1-1.15-.37 7.39 7.39 0 0 1-.99-.54 6.77 6.77 0 0 1-.81-.65l.76-1.05c.16-.227.37-.34.63-.34a.97.97 0 0 1 .51.16c.173.107.37.223.59.35.226.127.49.243.79.35.306.107.673.16 1.1.16.453 0 .853-.073 1.2-.22.346-.147.633-.35.86-.61a2.59 2.59 0 0 0 .52-.94c.12-.367.18-.763.18-1.19 0-.787-.23-1.4-.69-1.84-.454-.447-1.127-.67-2.02-.67-.687 0-1.39.127-2.11.38l-1.54-.44 1.2-7.02h7.14v1.05c0 .353-.11.64-.33.86-.22.22-.594.33-1.12.33h-3.97l-.51 3.01Zm14.991-1.75c0 .547-.093 1.04-.28 1.48-.18.44-.423.817-.73 1.13a3.317 3.317 0 0 1-2.34.96c-.48 0-.923-.083-1.33-.25a3.12 3.12 0 0 1-1.06-.71 3.384 3.384 0 0 1-.69-1.13 4.151 4.151 0 0 1-.25-1.48c0-.56.083-1.067.25-1.52.167-.453.397-.837.69-1.15.3-.313.653-.553 1.06-.72.407-.173.85-.26 1.33-.26.48 0 .923.087 1.33.26.413.167.77.407 1.07.72.3.313.533.697.7 1.15.167.453.25.96.25 1.52Zm-1.9 0c0-.387-.04-.71-.12-.97a1.69 1.69 0 0 0-.31-.63 1.042 1.042 0 0 0-.46-.34 1.423 1.423 0 0 0-.56-.11c-.2 0-.387.037-.56.11-.173.067-.323.18-.45.34-.12.16-.217.37-.29.63a3.63 3.63 0 0 0-.11.97c0 .373.037.687.11.94.073.247.17.447.29.6.127.153.277.263.45.33s.36.1.56.1c.2 0 .387-.033.56-.1.18-.067.333-.177.46-.33.133-.153.237-.353.31-.6.08-.253.12-.567.12-.94Zm6.71-3.11c.087-.1.187-.19.3-.27.12-.08.287-.12.5-.12h1.8l-10.74 14.09c-.087.107-.19.197-.31.27a.894.894 0 0 1-.44.1h-1.84l10.73-14.07Zm3.36 10.67c0 .547-.093 1.04-.28 1.48-.18.44-.423.817-.73 1.13a3.362 3.362 0 0 1-1.07.72c-.407.167-.83.25-1.27.25-.48 0-.923-.083-1.33-.25a3.246 3.246 0 0 1-1.06-.72 3.384 3.384 0 0 1-.69-1.13 4.151 4.151 0 0 1-.25-1.48c0-.56.083-1.067.25-1.52.167-.453.397-.837.69-1.15.3-.313.653-.553 1.06-.72.407-.173.85-.26 1.33-.26.48 0 .923.087 1.33.26.413.167.767.407 1.06.72.3.313.533.697.7 1.15.173.453.26.96.26 1.52Zm-1.91 0c0-.387-.037-.71-.11-.97a1.69 1.69 0 0 0-.31-.63 1.042 1.042 0 0 0-.46-.34 1.423 1.423 0 0 0-.56-.11c-.2 0-.387.037-.56.11-.173.067-.323.18-.45.34-.127.16-.227.37-.3.63-.067.26-.1.583-.1.97 0 .373.033.687.1.94.073.253.173.457.3.61.127.153.277.263.45.33s.36.1.56.1c.2 0 .387-.033.56-.1.18-.067.333-.177.46-.33.133-.153.237-.357.31-.61.073-.253.11-.567.11-.94Z" fill="#fff"/></svg>