<svg width="50" height="50" fill="none" xmlns="http://www.w3.org/2000/svg"><circle cx="25" cy="25" r="25" fill="#FFBD13"/><path d="M7.912 25.344h4.144v1.648H7.912v-1.648Zm13.337 4.176V31h-6.4v-1.48h2.344v-6.744c0-.267.008-.541.024-.824l-1.664 1.392a.73.73 0 0 1-.288.144.697.697 0 0 1-.48-.08.508.508 0 0 1-.144-.136l-.624-.856 3.528-3h1.624V29.52h2.08Zm4.249-5.888c.256-.053.501-.09.736-.112.235-.027.461-.04.68-.04.608 0 1.144.09 1.608.272.464.181.853.432 1.168.752.315.32.552.696.712 1.128.16.427.24.888.24 1.384 0 .613-.11 1.173-.328 1.68A3.796 3.796 0 0 1 29.418 30c-.384.357-.84.635-1.368.832a4.81 4.81 0 0 1-1.712.296 4.6 4.6 0 0 1-1.032-.112 5.46 5.46 0 0 1-.92-.296 5.905 5.905 0 0 1-.792-.432 5.416 5.416 0 0 1-.648-.52l.608-.84a.59.59 0 0 1 .504-.272c.133 0 .27.043.408.128.139.085.296.179.472.28.181.101.392.195.632.28.245.085.539.128.88.128.363 0 .683-.059.96-.176.277-.117.507-.28.688-.488a2.07 2.07 0 0 0 .416-.752c.096-.293.144-.61.144-.952 0-.63-.184-1.12-.552-1.472-.363-.357-.901-.536-1.616-.536-.55 0-1.112.101-1.688.304l-1.232-.352.96-5.616h5.712v.84c0 .283-.088.512-.264.688-.176.176-.475.264-.896.264h-3.176l-.408 2.408Zm11.993-1.4c0 .437-.074.832-.224 1.184a2.782 2.782 0 0 1-.584.904 2.655 2.655 0 0 1-1.872.768 2.78 2.78 0 0 1-1.064-.2 2.496 2.496 0 0 1-.848-.568 2.709 2.709 0 0 1-.552-.904 3.32 3.32 0 0 1-.2-1.184c0-.448.067-.853.2-1.216.134-.363.318-.67.552-.92.24-.25.523-.443.848-.576.326-.139.68-.208 1.064-.208s.739.07 1.064.208c.33.133.616.325.856.576.24.25.427.557.56.92.134.363.2.768.2 1.216Zm-1.52 0c0-.31-.032-.568-.096-.776a1.352 1.352 0 0 0-.248-.504.833.833 0 0 0-.368-.272 1.137 1.137 0 0 0-.448-.088c-.16 0-.31.03-.448.088a.841.841 0 0 0-.36.272 1.526 1.526 0 0 0-.232.504 2.905 2.905 0 0 0-.088.776c0 .299.03.55.088.752.059.197.136.357.232.48.102.123.222.21.36.264.139.053.288.08.448.08.16 0 .31-.027.448-.08a.857.857 0 0 0 .368-.264c.107-.123.19-.283.248-.48.064-.203.096-.453.096-.752Zm5.368-2.488c.07-.08.15-.152.24-.216.096-.064.23-.096.4-.096h1.44l-8.592 11.272a.968.968 0 0 1-.248.216.716.716 0 0 1-.352.08h-1.472l8.584-11.256Zm2.688 8.536c0 .437-.074.832-.224 1.184a2.782 2.782 0 0 1-.584.904c-.245.245-.53.437-.856.576-.325.133-.664.2-1.016.2a2.78 2.78 0 0 1-1.064-.2 2.598 2.598 0 0 1-.848-.576 2.709 2.709 0 0 1-.552-.904 3.32 3.32 0 0 1-.2-1.184c0-.448.067-.853.2-1.216.134-.363.318-.67.552-.92.24-.25.523-.443.848-.576.326-.139.68-.208 1.064-.208s.739.07 1.064.208c.33.133.614.325.848.576.24.25.427.557.56.92.139.363.208.768.208 1.216Zm-1.528 0c0-.31-.03-.568-.088-.776a1.352 1.352 0 0 0-.248-.504.833.833 0 0 0-.368-.272 1.137 1.137 0 0 0-.448-.088c-.16 0-.31.03-.448.088a.841.841 0 0 0-.36.272 1.429 1.429 0 0 0-.24.504 3.18 3.18 0 0 0-.08.776c0 .299.027.55.08.752.059.203.139.365.24.488.102.123.222.21.36.264.139.053.288.08.448.08.16 0 .31-.027.448-.08a.857.857 0 0 0 .368-.264c.107-.123.19-.285.248-.488.059-.203.088-.453.088-.752Z" fill="#fff"/></svg>